<svg width="1012" height="915" viewBox="0 0 759 686.25" xmlns="http://www.w3.org/2000/svg" xmlns:xlink="http://www.w3.org/1999/xlink">
<g id="graph0" class="graph" transform="translate(400.7276112076323,433.1671826487683) scale(1.2233139392222951)">
<title>G</title>
<polygon fill="white" stroke="none" points="-4,4 -4,-352.8 151.8,-352.8 151.8,4 -4,4"/>
<text text-anchor="middle" x="73.9" y="-8.2" font-family="Times,serif" font-size="14.00">CFG della source chain</text>
<!-- Start -->
<g id="node1" class="node">
<title>A</title>
<ellipse fill="rgb(211, 211, 211)" stroke="rgb(211, 211, 211)" cx="73.9" cy="-330.8" rx="18" ry="18"/>
</g>
<!-- If -->
<g id="node2" class="node">
<title>B</title>
<ellipse fill="rgb(211, 211, 211)" stroke="rgb(211, 211, 211)" cx="73.9" cy="-258.8" rx="18" ry="18"/>
</g>
<!-- Start&#45;&gt;If -->
<g id="edge1" class="edge">
<title>A-&gt;B</title>
<path fill="none" stroke="black" d="M73.9,-312.5C73.9,-305.21 73.9,-296.53 73.9,-288.34"/>
<polygon fill="black" stroke="black" points="77.4,-288.42 73.9,-278.42 70.4,-288.42 77.4,-288.42"/>
</g>
<!-- TrueBranch -->
<g id="node3" class="node">
<title>C</title>
<ellipse fill="rgb(211, 211, 211)" stroke="lightgrey" cx="46.9" cy="-186.8" rx="18" ry="18"/>
</g>
<!-- If&#45;&gt;TrueBranch -->
<g id="edge2" class="edge">
<title>B-&gt;C</title>
<path fill="none" stroke="black" d="M67.64,-241.56C64.54,-233.52 60.71,-223.61 57.19,-214.49"/>
<polygon fill="black" stroke="black" points="60.54,-213.43 53.67,-205.36 54,-215.95 60.54,-213.43"/>
</g>
<!-- FalseBranch -->
<g id="node4" class="node">
<title>D</title>
<ellipse fill="rgb(211, 211, 211)" stroke="lightgrey" cx="100.9" cy="-186.8" rx="18" ry="18"/>
</g>
<!-- If&#45;&gt;FalseBranch -->
<g id="edge3" class="edge">
<title>B-&gt;D</title>
<path fill="none" stroke="black" d="M80.16,-241.56C83.26,-233.52 87.09,-223.61 90.6,-214.49"/>
<polygon fill="black" stroke="black" points="93.79,-215.95 94.13,-205.36 87.26,-213.43 93.79,-215.95"/>
</g>
<!-- Merge -->
<g id="node5" class="node">
<title>E</title>
<ellipse fill="rgb(211, 211, 211)" stroke="lightgrey" cx="73.9" cy="-114.8" rx="18" ry="18"/>
</g>
<!-- TrueBranch&#45;&gt;Merge -->
<g id="edge4" class="edge">
<title>C-&gt;E</title>
<path fill="none" stroke="black" d="M53.16,-169.56C56.26,-161.52 60.09,-151.61 63.6,-142.49"/>
<polygon fill="black" stroke="black" points="66.79,-143.95 67.13,-133.36 60.26,-141.43 66.79,-143.95"/>
</g>
<!-- FalseBranch&#45;&gt;Merge -->
<g id="edge5" class="edge">
<title>D-&gt;E</title>
<path fill="none" stroke="black" d="M94.64,-169.56C91.54,-161.52 87.71,-151.61 84.19,-142.49"/>
<polygon fill="black" stroke="black" points="87.54,-141.43 80.67,-133.36 81,-143.95 87.54,-141.43"/>
</g>
<!-- End -->
<g id="node6" class="node">
<title>F</title>
<ellipse fill="rgb(144, 238, 144)" stroke="lightgreen" cx="73.9" cy="-42.8" rx="18" ry="18"/>
</g>
<!-- Merge&#45;&gt;End -->
<g id="edge6" class="edge">
<title>E-&gt;F</title>
<path fill="none" stroke="black" d="M73.9,-96.5C73.9,-89.21 73.9,-80.53 73.9,-72.34"/>
<polygon fill="black" stroke="black" points="77.4,-72.42 73.9,-62.42 70.4,-72.42 77.4,-72.42"/>
</g>
</g>
</svg>