<svg width="1012" height="915" viewBox="0 0 759 686.25" xmlns="http://www.w3.org/2000/svg" xmlns:xlink="http://www.w3.org/1999/xlink">
<g id="graph0" class="graph" transform="translate(400.7276112076323,433.16718264876835) scale(1.2233139392222951)">
<title>G</title>
<polygon fill="white" stroke="none" points="-4,4 -4,-352.8 176.69,-352.8 176.69,4 -4,4"/>
<text text-anchor="middle" x="86.35" y="-8.2" font-family="Times,serif" font-size="14.00">CFG della destination chain</text>
<!-- Start -->
<g id="node1" class="node">
<title>A</title>
<ellipse fill="rgb(255, 0, 0)" stroke="rgb(255, 0, 0)" cx="86.35" cy="-330.8" rx="18" ry="18"/>
</g>
<!-- If -->
<g id="node2" class="node">
<title>B</title>
<ellipse fill="rgb(211, 211, 211)" stroke="rgb(211, 211, 211)" cx="86.35" cy="-258.8" rx="18" ry="18"/>
</g>
<!-- Start&#45;&gt;If -->
<g id="edge1" class="edge">
<title>A-&gt;B</title>
<path fill="none" stroke="black" d="M86.35,-312.5C86.35,-305.21 86.35,-296.53 86.35,-288.34"/>
<polygon fill="black" stroke="black" points="89.85,-288.42 86.35,-278.42 82.85,-288.42 89.85,-288.42"/>
</g>
<!-- TrueBranch -->
<g id="node3" class="node">
<title>C</title>
<ellipse fill="rgb(211, 211, 211)" stroke="lightgrey" cx="113.35" cy="-186.8" rx="18" ry="18"/>
</g>
<!-- If&#45;&gt;TrueBranch -->
<g id="edge2" class="edge">
<title>B-&gt;C</title>
<path fill="none" stroke="black" d="M92.61,-241.56C95.71,-233.52 99.53,-223.61 103.05,-214.49"/>
<polygon fill="black" stroke="black" points="106.24,-215.95 106.57,-205.36 99.71,-213.43 106.24,-215.95"/>
</g>
<!-- FalseBranch -->
<g id="node4" class="node">
<title>D</title>
<ellipse fill="rgb(211, 211, 211)" stroke="lightgrey" cx="59.35" cy="-186.8" rx="18" ry="18"/>
</g>
<!-- If&#45;&gt;FalseBranch -->
<g id="edge3" class="edge">
<title>B-&gt;D</title>
<path fill="none" stroke="black" d="M80.08,-241.56C76.98,-233.52 73.16,-223.61 69.64,-214.49"/>
<polygon fill="black" stroke="black" points="72.98,-213.43 66.12,-205.36 66.45,-215.95 72.98,-213.43"/>
</g>
<!-- Merge -->
<g id="node5" class="node">
<title>E</title>
<ellipse fill="rgb(211, 211, 211)" stroke="lightgrey" cx="59.35" cy="-114.8" rx="18" ry="18"/>
</g>
<!-- TrueBranch&#45;&gt;Merge -->
<g id="edge4" class="edge">
<title>C-&gt;E</title>
<path fill="none" stroke="black" d="M102.68,-171.97C95.36,-162.48 85.47,-149.66 76.99,-138.66"/>
<polygon fill="black" stroke="black" points="79.8,-136.58 70.92,-130.8 74.25,-140.86 79.8,-136.58"/>
</g>
<!-- FalseBranch&#45;&gt;Merge -->
<g id="node7" class="node">
<title>G</title>
<ellipse fill="lightgrey" stroke="lightgrey" cx="113.35" cy="-114.8" rx="18" ry="18"/>
</g>
<!-- End -->
<g id="edge5" class="edge">
<title>C-&gt;G</title>
<path fill="none" stroke="black" d="M113.35,-168.5C113.35,-161.21 113.35,-152.53 113.35,-144.34"/>
<polygon fill="black" stroke="black" points="116.85,-144.42 113.35,-134.42 109.85,-144.42 116.85,-144.42"/>
</g>
<!-- Merge&#45;&gt;End -->
<g id="edge6" class="edge">
<title>D-&gt;E</title>
<path fill="none" stroke="black" d="M59.35,-168.5C59.35,-161.21 59.35,-152.53 59.35,-144.34"/>
<polygon fill="black" stroke="black" points="62.85,-144.42 59.35,-134.42 55.85,-144.42 62.85,-144.42"/>
</g>
<!-- G -->
<g id="node6" class="node">
<title>F</title>
<ellipse fill="rgb(211, 211, 211)" stroke="rgb(211, 211, 211)" cx="86.35" cy="-42.8" rx="18" ry="18"/>
</g>
<!-- E&#45;&gt;G -->
<g id="edge7" class="edge">
<title>E-&gt;F</title>
<path fill="none" stroke="black" d="M65.61,-97.56C68.71,-89.52 72.53,-79.61 76.05,-70.49"/>
<polygon fill="black" stroke="black" points="79.24,-71.95 79.57,-61.36 72.71,-69.43 79.24,-71.95"/>
</g>
<!-- G&#45;&gt;F -->
<g id="edge8" class="edge">
<title>G-&gt;F</title>
<path fill="none" stroke="black" d="M107.08,-97.56C103.98,-89.52 100.16,-79.61 96.64,-70.49"/>
<polygon fill="black" stroke="black" points="99.98,-69.43 93.12,-61.36 93.45,-71.95 99.98,-69.43"/>
</g>
</g>
</svg>