<svg width="1012" height="915" viewBox="0 0 759 686.25" xmlns="http://www.w3.org/2000/svg" xmlns:xlink="http://www.w3.org/1999/xlink">
<g id="graph0" class="graph" transform="translate(338.2550830628944,318.99648820056166) scale(0.5658995664818015)">
<title>G</title>
<polygon fill="white" stroke="none" points="-4,4 -4,-118.8 688,-118.8 688,4 -4,4"/>
<text text-anchor="middle" x="342" y="-8.2" font-family="Times,serif" font-size="14.00">Cross-chain CFG (xCFG)</text>
<!-- Start -->
<g id="node1" class="node">
<title>A</title>
<ellipse fill="lightgrey" stroke="lightgrey" cx="18" cy="-69.8" rx="18" ry="18"/>
</g>
<!-- If -->
<g id="node2" class="node">
<title>B</title>
<ellipse fill="lightgrey" stroke="lightgrey" cx="90" cy="-69.8" rx="18" ry="18"/>
</g>
<!-- Start&#45;&gt;If -->
<g id="edge1" class="edge">
<title>A-&gt;B</title>
<path fill="none" stroke="black" d="M36.3,-69.8C43.59,-69.8 52.27,-69.8 60.46,-69.8"/>
<polygon fill="black" stroke="black" points="60.38,-73.3 70.38,-69.8 60.38,-66.3 60.38,-73.3"/>
</g>
<!-- TrueBranch -->
<g id="node3" class="node">
<title>C</title>
<ellipse fill="lightgrey" stroke="lightgrey" cx="162" cy="-96.8" rx="18" ry="18"/>
</g>
<!-- If&#45;&gt;TrueBranch -->
<g id="edge2" class="edge">
<title>B-&gt;C</title>
<path fill="none" stroke="black" d="M107.24,-76.06C115.28,-79.16 125.19,-82.99 134.31,-86.5"/>
<polygon fill="black" stroke="black" points="132.85,-89.69 143.44,-90.03 135.37,-83.16 132.85,-89.69"/>
</g>
<!-- FalseBranch -->
<g id="node4" class="node">
<title>D</title>
<ellipse fill="lightgrey" stroke="lightgrey" cx="162" cy="-42.8" rx="18" ry="18"/>
</g>
<!-- If&#45;&gt;FalseBranch -->
<g id="edge3" class="edge">
<title>B-&gt;D</title>
<path fill="none" stroke="black" d="M107.24,-63.54C115.28,-60.44 125.19,-56.61 134.31,-53.1"/>
<polygon fill="black" stroke="black" points="135.37,-56.44 143.44,-49.57 132.85,-49.91 135.37,-56.44"/>
</g>
<!-- Merge -->
<g id="node5" class="node">
<title>E</title>
<ellipse fill="lightgrey" stroke="lightgrey" cx="234" cy="-69.8" rx="18" ry="18"/>
</g>
<!-- TrueBranch&#45;&gt;Merge -->
<g id="edge4" class="edge">
<title>C-&gt;E</title>
<path fill="none" stroke="black" d="M179.24,-90.54C187.28,-87.44 197.19,-83.61 206.31,-80.1"/>
<polygon fill="black" stroke="black" points="207.37,-83.44 215.44,-76.57 204.85,-76.91 207.37,-83.44"/>
</g>
<!-- FalseBranch&#45;&gt;Merge -->
<g id="edge5" class="edge">
<title>D-&gt;E</title>
<path fill="none" stroke="black" d="M179.24,-49.06C187.28,-52.16 197.19,-55.99 206.31,-59.5"/>
<polygon fill="black" stroke="black" points="204.85,-62.69 215.44,-63.03 207.37,-56.16 204.85,-62.69"/>
</g>
<!-- End -->
<g id="node6" class="node">
<title>F</title>
<ellipse fill="lightgreen" stroke="lightgreen" cx="306" cy="-69.8" rx="18" ry="18"/>
</g>
<!-- Merge&#45;&gt;End -->
<g id="edge6" class="edge">
<title>E-&gt;F</title>
<path fill="none" stroke="black" d="M252.3,-69.8C259.59,-69.8 268.27,-69.8 276.46,-69.8"/>
<polygon fill="black" stroke="black" points="276.38,-73.3 286.38,-69.8 276.38,-66.3 276.38,-73.3"/>
</g>
<!-- G -->
<g id="node7" class="node">
<title>A2</title>
<ellipse fill="rgb(255, 0, 0)" stroke="rgb(255, 0, 0)" cx="378" cy="-69.8" rx="18" ry="18"/>
</g>
<!-- E&#45;&gt;G -->
<g id="edge15" class="edge">
<title>F-&gt;A2</title>
<path fill="none" stroke="black" d="M324.3,-69.8C331.59,-69.8 340.27,-69.8 348.46,-69.8"/>
<polygon fill="black" stroke="black" points="348.38,-73.3 358.38,-69.8 348.38,-66.3 348.38,-73.3"/>
</g>
<!-- G&#45;&gt;F -->
<g id="node8" class="node">
<title>B2</title>
<ellipse fill="lightgrey" stroke="lightgrey" cx="450" cy="-69.8" rx="18" ry="18"/>
</g>
<!-- C2 -->
<g id="edge7" class="edge">
<title>A2-&gt;B2</title>
<path fill="none" stroke="black" d="M396.3,-69.8C403.59,-69.8 412.27,-69.8 420.46,-69.8"/>
<polygon fill="black" stroke="black" points="420.38,-73.3 430.38,-69.8 420.38,-66.3 420.38,-73.3"/>
</g>
<!-- B2&#45;&gt;C2 -->
<g id="node9" class="node">
<title>C2</title>
<ellipse fill="lightgrey" stroke="lightgrey" cx="522" cy="-42.8" rx="18" ry="18"/>
</g>
<!-- D2 -->
<g id="edge8" class="edge">
<title>B2-&gt;C2</title>
<path fill="none" stroke="black" d="M467.24,-63.54C475.28,-60.44 485.19,-56.61 494.31,-53.1"/>
<polygon fill="black" stroke="black" points="495.37,-56.44 503.44,-49.57 492.85,-49.91 495.37,-56.44"/>
</g>
<!-- B2&#45;&gt;D2 -->
<g id="node10" class="node">
<title>D2</title>
<ellipse fill="lightgrey" stroke="lightgrey" cx="522" cy="-96.8" rx="18" ry="18"/>
</g>
<!-- E2 -->
<g id="edge9" class="edge">
<title>B2-&gt;D2</title>
<path fill="none" stroke="black" d="M467.24,-76.06C475.28,-79.16 485.19,-82.99 494.31,-86.5"/>
<polygon fill="black" stroke="black" points="492.85,-89.69 503.44,-90.03 495.37,-83.16 492.85,-89.69"/>
</g>
<!-- C2&#45;&gt;E2 -->
<g id="node11" class="node">
<title>E2</title>
<ellipse fill="lightgrey" stroke="lightgrey" cx="594" cy="-96.8" rx="18" ry="18"/>
</g>
<!-- G2 -->
<g id="edge10" class="edge">
<title>C2-&gt;E2</title>
<path fill="none" stroke="black" d="M536.83,-53.47C546.32,-60.79 559.14,-70.68 570.14,-79.16"/>
<polygon fill="black" stroke="black" points="567.94,-81.89 578,-85.23 572.22,-76.35 567.94,-81.89"/>
</g>
<!-- C2&#45;&gt;G2 -->
<g id="node13" class="node">
<title>G2</title>
<ellipse fill="lightgrey" stroke="lightgrey" cx="594" cy="-42.8" rx="18" ry="18"/>
</g>
<!-- D2&#45;&gt;E2 -->
<g id="edge11" class="edge">
<title>C2-&gt;G2</title>
<path fill="none" stroke="black" d="M540.3,-42.8C547.59,-42.8 556.27,-42.8 564.46,-42.8"/>
<polygon fill="black" stroke="black" points="564.38,-46.3 574.38,-42.8 564.38,-39.3 564.38,-46.3"/>
</g>
<!-- F2 -->
<g id="edge12" class="edge">
<title>D2-&gt;E2</title>
<path fill="none" stroke="black" d="M540.3,-96.8C547.59,-96.8 556.27,-96.8 564.46,-96.8"/>
<polygon fill="black" stroke="black" points="564.38,-100.3 574.38,-96.8 564.38,-93.3 564.38,-100.3"/>
</g>
<!-- E2&#45;&gt;F2 -->
<g id="node12" class="node">
<title>F2</title>
<ellipse fill="lightgrey" stroke="lightgrey" cx="666" cy="-69.8" rx="18" ry="18"/>
</g>
<!-- G2&#45;&gt;F2 -->
<g id="edge13" class="edge">
<title>E2-&gt;F2</title>
<path fill="none" stroke="black" d="M611.24,-90.54C619.28,-87.44 629.19,-83.61 638.31,-80.1"/>
<polygon fill="black" stroke="black" points="639.37,-83.44 647.44,-76.57 636.85,-76.91 639.37,-83.44"/>
</g>
<!-- G2&#45;&gt;F2 -->
<g id="edge14" class="edge">
<title>G2-&gt;F2</title>
<path fill="none" stroke="black" d="M611.24,-49.06C619.28,-52.16 629.19,-55.99 638.31,-59.5"/>
<polygon fill="black" stroke="black" points="636.85,-62.69 647.44,-63.03 639.37,-56.16 636.85,-62.69"/>
</g>
</g>
</svg>