<svg width="1012" height="915" viewBox="0 0 759 686.25" xmlns="http://www.w3.org/2000/svg" xmlns:xlink="http://www.w3.org/1999/xlink">
<g id="graph0" class="graph" transform="translate(281.59343200910956,520.2098975992222) scale(1.1703817262898848)">
<title>G</title>
<polygon fill="white" stroke="none" points="-4,4 -4,-352.8 198.47,-352.8 198.47,4 -4,4"/>
<text text-anchor="middle" x="97.24" y="-8.2" font-family="Times,serif" font-size="14.00">Esempio di Control-flow Graph</text>
<!-- Start -->
<g id="node1" class="node">
<title>A</title>
<ellipse fill="rgb(173, 216, 230)" stroke="lightblue" cx="97.24" cy="-330.8" rx="18" ry="18"/>
</g>
<!-- If -->
<g id="node2" class="node">
<title>B</title>
<ellipse fill="rgb(211, 211, 211)" stroke="rgb(211, 211, 211)" cx="97.24" cy="-258.8" rx="18" ry="18"/>
</g>
<!-- Start&#45;&gt;If -->
<g id="edge1" class="edge">
<title>A-&gt;B</title>
<path fill="none" stroke="black" d="M97.24,-312.5C97.24,-305.21 97.24,-296.53 97.24,-288.34"/>
<polygon fill="black" stroke="black" points="100.74,-288.42 97.24,-278.42 93.74,-288.42 100.74,-288.42"/>
</g>
<!-- TrueBranch -->
<g id="node3" class="node">
<title>C</title>
<ellipse fill="rgb(211, 211, 211)" stroke="lightgrey" cx="70.24" cy="-186.8" rx="18" ry="18"/>
</g>
<!-- If&#45;&gt;TrueBranch -->
<g id="edge2" class="edge">
<title>B-&gt;C</title>
<path fill="none" stroke="black" d="M90.97,-241.56C87.87,-233.52 84.05,-223.61 80.53,-214.49"/>
<polygon fill="black" stroke="black" points="83.87,-213.43 77.01,-205.36 77.34,-215.95 83.87,-213.43"/>
</g>
<!-- FalseBranch -->
<g id="node4" class="node">
<title>D</title>
<ellipse fill="rgb(211, 211, 211)" stroke="lightgrey" cx="124.24" cy="-186.8" rx="18" ry="18"/>
</g>
<!-- If&#45;&gt;FalseBranch -->
<g id="edge3" class="edge">
<title>B-&gt;D</title>
<path fill="none" stroke="black" d="M103.5,-241.56C106.6,-233.52 110.42,-223.61 113.94,-214.49"/>
<polygon fill="black" stroke="black" points="117.13,-215.95 117.46,-205.36 110.6,-213.43 117.13,-215.95"/>
</g>
<!-- Merge -->
<g id="node5" class="node">
<title>E</title>
<ellipse fill="rgb(211, 211, 211)" stroke="lightgrey" cx="97.24" cy="-114.8" rx="18" ry="18"/>
</g>
<!-- TrueBranch&#45;&gt;Merge -->
<g id="edge4" class="edge">
<title>C-&gt;E</title>
<path fill="none" stroke="black" d="M76.5,-169.56C79.6,-161.52 83.42,-151.61 86.94,-142.49"/>
<polygon fill="black" stroke="black" points="90.13,-143.95 90.46,-133.36 83.6,-141.43 90.13,-143.95"/>
</g>
<!-- FalseBranch&#45;&gt;Merge -->
<g id="edge5" class="edge">
<title>D-&gt;E</title>
<path fill="none" stroke="black" d="M117.97,-169.56C114.87,-161.52 111.05,-151.61 107.53,-142.49"/>
<polygon fill="black" stroke="black" points="110.87,-141.43 104.01,-133.36 104.34,-143.95 110.87,-141.43"/>
</g>
<!-- End -->
<g id="node6" class="node">
<title>F</title>
<ellipse fill="rgb(144, 238, 144)" stroke="lightgreen" cx="97.24" cy="-42.8" rx="18" ry="18"/>
</g>
<!-- Merge&#45;&gt;End -->
<g id="edge6" class="edge">
<title>E-&gt;F</title>
<path fill="none" stroke="black" d="M97.24,-96.5C97.24,-89.21 97.24,-80.53 97.24,-72.34"/>
<polygon fill="black" stroke="black" points="100.74,-72.42 97.24,-62.42 93.74,-72.42 100.74,-72.42"/>
</g>
</g>
</svg>